# xmcd CD database file
#
# Track frame offsets:
#	150
#	27880
#	49640
#	75837
#	93483
#	110011
#	131082
#	147230
#	166830
#	192142
#
# Disc length: 3715 seconds
#
# Revision: 0
# Processed by: cddbd v1.4PL0 Copyright (c) Steve Scherf et al.
# Submitted via: CDex 1.50
#
DISCID=790e810a
DTITLE=Caminoigra - Ishuan
DYEAR=2001
DGENRE=Jazz
TTITLE0=12 String Blues
TTITLE1=Ananania
TTITLE2=As Time Goes By
TTITLE3=Natural
TTITLE4=Jailsong
TTITLE5=Niña
TTITLE6=Ishuan
TTITLE7=Alley Su Alley
TTITLE8=One Moment Of Samba
TTITLE9=Dawn
EXTD=YEAR: 2001
EXTT0=
EXTT1=
EXTT2=
EXTT3=
EXTT4=
EXTT5=
EXTT6=
EXTT7=
EXTT8=
EXTT9=
PLAYORDER=
